<mxfile host="drawio-plugin" modified="2023-02-25T05:18:10.699Z" agent="5.0 (Macintosh; Intel Mac OS X 10_15_7) AppleWebKit/537.36 (KHTML, like Gecko) Chrome/104.0.5112.102 Safari/537.36" etag="YnVAv6-KHPS0rhRp4cnp" version="20.5.3" type="embed"><diagram id="23iRSUPoRavnBvh4doch" name="flow"><mxGraphModel dx="1152" dy="713" grid="1" gridSize="10" guides="1" tooltips="1" connect="1" arrows="1" fold="1" page="1" pageScale="1" pageWidth="827" pageHeight="1169" math="0" shadow="0"><root><mxCell id="0"/><mxCell id="1" parent="0"/><mxCell id="6" value="Upload&lt;br&gt;with REST API" style="edgeStyle=orthogonalEdgeStyle;rounded=0;orthogonalLoop=1;jettySize=auto;html=1;exitX=0.5;exitY=1;exitDx=0;exitDy=0;entryX=0.5;entryY=0;entryDx=0;entryDy=0;fontSize=20;strokeWidth=2;" edge="1" parent="1" source="2" target="3"><mxGeometry relative="1" as="geometry"/></mxCell><mxCell id="3" value="Confluence" style="shape=module;align=center;spacingLeft=20;align=center;verticalAlign=middle;strokeWidth=2;fontSize=20;jettyWidth=20;jettyHeight=16;fillColor=#f8cecc;strokeColor=#b85450;" vertex="1" parent="1"><mxGeometry x="600" y="520" width="200" height="80" as="geometry"/></mxCell><mxCell id="8" value="" style="group" vertex="1" connectable="0" parent="1"><mxGeometry x="600" y="360" width="200" height="80" as="geometry"/></mxCell><mxCell id="2" value="&lt;font style=&quot;font-size: 20px;&quot;&gt;Confluence&lt;br&gt;Wiki Markup&lt;br&gt;&lt;/font&gt;" style="rounded=1;whiteSpace=wrap;html=1;strokeWidth=2;fillColor=#dae8fc;strokeColor=#6c8ebf;" vertex="1" parent="8"><mxGeometry width="200" height="80" as="geometry"/></mxCell><mxCell id="4" value="" style="shape=image;verticalLabelPosition=bottom;verticalAlign=top;imageAspect=0;image=data:image/svg+xml,PHN2ZyB4bWxuczp4bGluaz0iaHR0cDovL3d3dy53My5vcmcvMTk5OS94bGluayIgeG1sbnM9Imh0dHA6Ly93d3cudzMub3JnLzIwMDAvc3ZnIiB4bWw6c3BhY2U9InByZXNlcnZlIiB2aWV3Qm94PSIwIDAgMjU2LjYxIDI1Ni42MSIgaGVpZ2h0PSI4MDBweCIgd2lkdGg9IjgwMHB4IiBpZD0iQ2FwYV8xIiB2ZXJzaW9uPSIxLjEiIGZpbGw9IiMwMDAwMDAiPiYjeGE7PGc+JiN4YTsJPGcgaWQ9Il94MzhfN18zNl8iPiYjeGE7CQk8Zz4mI3hhOwkJCTxwYXRoIGQ9Ik02MC44NTksMTEyLjUzM2MtNi44NTMsMC02Ljg1MywxMC42NDYsMCwxMC42NDZjMjcuMjk0LDAsNTQuNTgzLDAsODEuODc1LDBjNi44NjUsMCw2Ljg2NS0xMC42NDYsMC0xMC42NDYmIzEwOyYjOTsmIzk7JiM5OyYjOTtDMTE1LjQ0MiwxMTIuNTMzLDg4LjE1MywxMTIuNTMzLDYwLjg1OSwxMTIuNTMzeiIvPiYjeGE7CQkJPHBhdGggZD0iTTE0Mi43MzQsMTM3LjcwNGMtMjcuMjkyLDAtNTQuNTgxLDAtODEuODc1LDBjLTYuODUzLDAtNi44NTMsMTAuNjM0LDAsMTAuNjM0YzI3LjI5NCwwLDU0LjU4MywwLDgxLjg3NSwwJiMxMDsmIzk7JiM5OyYjOTsmIzk7QzE0OS42LDE0OC4zMzgsMTQ5LjYsMTM3LjcwNCwxNDIuNzM0LDEzNy43MDR6Ii8+JiN4YTsJCQk8cGF0aCBkPSJNMTQyLjczNCwxNjEuMDE4Yy0yNy4yOTIsMC01NC41ODEsMC04MS44NzUsMGMtNi44NTMsMC02Ljg1MywxMC42MzMsMCwxMC42MzNjMjcuMjk0LDAsNTQuNTgzLDAsODEuODc1LDAmIzEwOyYjOTsmIzk7JiM5OyYjOTtDMTQ5LjYsMTcxLjY1LDE0OS42LDE2MS4wMTgsMTQyLjczNCwxNjEuMDE4eiIvPiYjeGE7CQkJPHBhdGggZD0iTTE0Mi43MzQsMTg2LjE4NGMtMjcuMjkyLDAtNTQuNTgxLDAtODEuODc1LDBjLTYuODUzLDAtNi44NTMsMTAuNjI5LDAsMTAuNjI5YzI3LjI5NCwwLDU0LjU4MywwLDgxLjg3NSwwJiMxMDsmIzk7JiM5OyYjOTsmIzk7QzE0OS42LDE5Ni44MTIsMTQ5LjYsMTg2LjE4NCwxNDIuNzM0LDE4Ni4xODR6Ii8+JiN4YTsJCQk8cGF0aCBkPSJNMTQxLjE3LDIwOS45MzRjLTI3LjMwMiwwLTU0LjYwMSwwLTgxLjg5LDBjLTYuODQ4LDAtNi44NDgsMTAuNjMzLDAsMTAuNjMzYzI3LjI4OSwwLDU0LjU4OCwwLDgxLjg5LDAmIzEwOyYjOTsmIzk7JiM5OyYjOTtDMTQ4LjAxNSwyMjAuNTY2LDE0OC4wMTUsMjA5LjkzNCwxNDEuMTcsMjA5LjkzNHoiLz4mI3hhOwkJCTxwYXRoIGQ9Ik0yNS4zNjIsNTguMDg3VjI1Ni42MWgxNTIuODc3Vjg1LjYzbC0yOC40MDYtMjcuNTQzSDI1LjM2MnogTTE2NS4wMjYsMjQzLjM5M0gzOC41ODVWNzEuMzA1aDEwNC40NDN2MjAuOTdoMjEuOTg4JiMxMDsmIzk7JiM5OyYjOTsmIzk7djE1MS4xMThIMTY1LjAyNnoiLz4mI3hhOwkJCTxwb2x5Z29uIHBvaW50cz0iNTEuMjA0LDI3LjY2NyA1MS4yMDQsNTAuNjQ1IDY0LjQyNyw1MC42NDUgNjQuNDI3LDQwLjg4IDE2OC44NzUsNDAuODggMTY4Ljg3NSw2MS44NSAxOTAuODY4LDYxLjg1ICYjMTA7JiM5OyYjOTsmIzk7JiM5OzE5MC44NjgsMjEyLjk3MSAxODUuMDU5LDIxMi45NzEgMTg1LjA1OSwyMjYuMTg4IDIwNC4wODYsMjI2LjE4OCAyMDQuMDg2LDU1LjIwNSAxNzUuNjgsMjcuNjY3Ii8+JiN4YTsJCQk8cG9seWdvbiBwb2ludHM9IjIwMi44MzcsMCA3OC4zNjMsMCA3OC4zNjMsMjIuOTgzIDkxLjU4MSwyMi45ODMgOTEuNTgxLDEzLjIxOCAxOTYuMDMyLDEzLjIxOCAxOTYuMDMyLDM0LjE4OCAyMTguMDI1LDM0LjE4OCAmIzEwOyYjOTsmIzk7JiM5OyYjOTsyMTguMDI1LDE4NS4zMDYgMjEyLjIyMSwxODUuMzA2IDIxMi4yMjEsMTk4LjUyMyAyMzEuMjQ4LDE5OC41MjMgMjMxLjI0OCwyNy41NDMiLz4mI3hhOwkJPC9nPiYjeGE7CTwvZz4mI3hhOzwvZz4mI3hhOzwvc3ZnPg==;strokeWidth=2;fontSize=20;" vertex="1" parent="8"><mxGeometry x="170" y="50" width="20" height="20" as="geometry"/></mxCell><mxCell id="10" value="Convert&lt;br&gt;with asciidoctor" style="edgeStyle=orthogonalEdgeStyle;rounded=0;orthogonalLoop=1;jettySize=auto;html=1;strokeWidth=2;fontSize=20;fontColor=default;exitX=0.5;exitY=1;exitDx=0;exitDy=0;" edge="1" parent="1" source="9" target="2"><mxGeometry x="-0.025" relative="1" as="geometry"><mxPoint x="695" y="281" as="sourcePoint"/><mxPoint x="695" y="361" as="targetPoint"/><mxPoint as="offset"/></mxGeometry></mxCell><mxCell id="9" value="AsciiDoctor" style="shape=module;align=center;spacingLeft=20;align=center;verticalAlign=middle;strokeWidth=2;fontSize=20;jettyWidth=20;jettyHeight=16;fillColor=#f8cecc;strokeColor=#b85450;" vertex="1" parent="1"><mxGeometry x="600" y="200" width="200" height="80" as="geometry"/></mxCell><mxCell id="11" value="" style="group" vertex="1" connectable="0" parent="1"><mxGeometry x="600" y="40" width="200" height="80" as="geometry"/></mxCell><mxCell id="12" value="&lt;font style=&quot;font-size: 20px;&quot;&gt;AsciiDoc&lt;br&gt;&lt;/font&gt;" style="rounded=1;whiteSpace=wrap;html=1;strokeWidth=2;fillColor=#dae8fc;strokeColor=#6c8ebf;" vertex="1" parent="11"><mxGeometry width="200" height="80" as="geometry"/></mxCell><mxCell id="13" value="" style="shape=image;verticalLabelPosition=bottom;verticalAlign=top;imageAspect=0;image=data:image/svg+xml,PHN2ZyB4bWxuczp4bGluaz0iaHR0cDovL3d3dy53My5vcmcvMTk5OS94bGluayIgeG1sbnM9Imh0dHA6Ly93d3cudzMub3JnLzIwMDAvc3ZnIiB4bWw6c3BhY2U9InByZXNlcnZlIiB2aWV3Qm94PSIwIDAgMjU2LjYxIDI1Ni42MSIgaGVpZ2h0PSI4MDBweCIgd2lkdGg9IjgwMHB4IiBpZD0iQ2FwYV8xIiB2ZXJzaW9uPSIxLjEiIGZpbGw9IiMwMDAwMDAiPiYjeGE7PGc+JiN4YTsJPGcgaWQ9Il94MzhfN18zNl8iPiYjeGE7CQk8Zz4mI3hhOwkJCTxwYXRoIGQ9Ik02MC44NTksMTEyLjUzM2MtNi44NTMsMC02Ljg1MywxMC42NDYsMCwxMC42NDZjMjcuMjk0LDAsNTQuNTgzLDAsODEuODc1LDBjNi44NjUsMCw2Ljg2NS0xMC42NDYsMC0xMC42NDYmIzEwOyYjOTsmIzk7JiM5OyYjOTtDMTE1LjQ0MiwxMTIuNTMzLDg4LjE1MywxMTIuNTMzLDYwLjg1OSwxMTIuNTMzeiIvPiYjeGE7CQkJPHBhdGggZD0iTTE0Mi43MzQsMTM3LjcwNGMtMjcuMjkyLDAtNTQuNTgxLDAtODEuODc1LDBjLTYuODUzLDAtNi44NTMsMTAuNjM0LDAsMTAuNjM0YzI3LjI5NCwwLDU0LjU4MywwLDgxLjg3NSwwJiMxMDsmIzk7JiM5OyYjOTsmIzk7QzE0OS42LDE0OC4zMzgsMTQ5LjYsMTM3LjcwNCwxNDIuNzM0LDEzNy43MDR6Ii8+JiN4YTsJCQk8cGF0aCBkPSJNMTQyLjczNCwxNjEuMDE4Yy0yNy4yOTIsMC01NC41ODEsMC04MS44NzUsMGMtNi44NTMsMC02Ljg1MywxMC42MzMsMCwxMC42MzNjMjcuMjk0LDAsNTQuNTgzLDAsODEuODc1LDAmIzEwOyYjOTsmIzk7JiM5OyYjOTtDMTQ5LjYsMTcxLjY1LDE0OS42LDE2MS4wMTgsMTQyLjczNCwxNjEuMDE4eiIvPiYjeGE7CQkJPHBhdGggZD0iTTE0Mi43MzQsMTg2LjE4NGMtMjcuMjkyLDAtNTQuNTgxLDAtODEuODc1LDBjLTYuODUzLDAtNi44NTMsMTAuNjI5LDAsMTAuNjI5YzI3LjI5NCwwLDU0LjU4MywwLDgxLjg3NSwwJiMxMDsmIzk7JiM5OyYjOTsmIzk7QzE0OS42LDE5Ni44MTIsMTQ5LjYsMTg2LjE4NCwxNDIuNzM0LDE4Ni4xODR6Ii8+JiN4YTsJCQk8cGF0aCBkPSJNMTQxLjE3LDIwOS45MzRjLTI3LjMwMiwwLTU0LjYwMSwwLTgxLjg5LDBjLTYuODQ4LDAtNi44NDgsMTAuNjMzLDAsMTAuNjMzYzI3LjI4OSwwLDU0LjU4OCwwLDgxLjg5LDAmIzEwOyYjOTsmIzk7JiM5OyYjOTtDMTQ4LjAxNSwyMjAuNTY2LDE0OC4wMTUsMjA5LjkzNCwxNDEuMTcsMjA5LjkzNHoiLz4mI3hhOwkJCTxwYXRoIGQ9Ik0yNS4zNjIsNTguMDg3VjI1Ni42MWgxNTIuODc3Vjg1LjYzbC0yOC40MDYtMjcuNTQzSDI1LjM2MnogTTE2NS4wMjYsMjQzLjM5M0gzOC41ODVWNzEuMzA1aDEwNC40NDN2MjAuOTdoMjEuOTg4JiMxMDsmIzk7JiM5OyYjOTsmIzk7djE1MS4xMThIMTY1LjAyNnoiLz4mI3hhOwkJCTxwb2x5Z29uIHBvaW50cz0iNTEuMjA0LDI3LjY2NyA1MS4yMDQsNTAuNjQ1IDY0LjQyNyw1MC42NDUgNjQuNDI3LDQwLjg4IDE2OC44NzUsNDAuODggMTY4Ljg3NSw2MS44NSAxOTAuODY4LDYxLjg1ICYjMTA7JiM5OyYjOTsmIzk7JiM5OzE5MC44NjgsMjEyLjk3MSAxODUuMDU5LDIxMi45NzEgMTg1LjA1OSwyMjYuMTg4IDIwNC4wODYsMjI2LjE4OCAyMDQuMDg2LDU1LjIwNSAxNzUuNjgsMjcuNjY3Ii8+JiN4YTsJCQk8cG9seWdvbiBwb2ludHM9IjIwMi44MzcsMCA3OC4zNjMsMCA3OC4zNjMsMjIuOTgzIDkxLjU4MSwyMi45ODMgOTEuNTgxLDEzLjIxOCAxOTYuMDMyLDEzLjIxOCAxOTYuMDMyLDM0LjE4OCAyMTguMDI1LDM0LjE4OCAmIzEwOyYjOTsmIzk7JiM5OyYjOTsyMTguMDI1LDE4NS4zMDYgMjEyLjIyMSwxODUuMzA2IDIxMi4yMjEsMTk4LjUyMyAyMzEuMjQ4LDE5OC41MjMgMjMxLjI0OCwyNy41NDMiLz4mI3hhOwkJPC9nPiYjeGE7CTwvZz4mI3hhOzwvZz4mI3hhOzwvc3ZnPg==;strokeWidth=2;fontSize=20;" vertex="1" parent="11"><mxGeometry x="170" y="50" width="20" height="20" as="geometry"/></mxCell><mxCell id="14" value="Upload&lt;br&gt;with Stdin" style="edgeStyle=orthogonalEdgeStyle;rounded=0;orthogonalLoop=1;jettySize=auto;html=1;entryX=0.5;entryY=0;entryDx=0;entryDy=0;strokeWidth=2;fontSize=20;fontColor=default;" edge="1" parent="1" source="12" target="9"><mxGeometry relative="1" as="geometry"/></mxCell><mxCell id="17" value="" style="group" vertex="1" connectable="0" parent="1"><mxGeometry x="40" y="360" width="200" height="80" as="geometry"/></mxCell><mxCell id="18" value="&lt;font style=&quot;font-size: 20px;&quot;&gt;Portable Document Format&lt;br&gt;&lt;/font&gt;" style="rounded=1;whiteSpace=wrap;html=1;strokeWidth=2;fillColor=#dae8fc;strokeColor=#6c8ebf;" vertex="1" parent="17"><mxGeometry width="200" height="80" as="geometry"/></mxCell><mxCell id="19" value="" style="shape=image;verticalLabelPosition=bottom;verticalAlign=top;imageAspect=0;image=data:image/svg+xml,PHN2ZyB4bWxuczp4bGluaz0iaHR0cDovL3d3dy53My5vcmcvMTk5OS94bGluayIgeG1sbnM9Imh0dHA6Ly93d3cudzMub3JnLzIwMDAvc3ZnIiB4bWw6c3BhY2U9InByZXNlcnZlIiB2aWV3Qm94PSIwIDAgMjU2LjYxIDI1Ni42MSIgaGVpZ2h0PSI4MDBweCIgd2lkdGg9IjgwMHB4IiBpZD0iQ2FwYV8xIiB2ZXJzaW9uPSIxLjEiIGZpbGw9IiMwMDAwMDAiPiYjeGE7PGc+JiN4YTsJPGcgaWQ9Il94MzhfN18zNl8iPiYjeGE7CQk8Zz4mI3hhOwkJCTxwYXRoIGQ9Ik02MC44NTksMTEyLjUzM2MtNi44NTMsMC02Ljg1MywxMC42NDYsMCwxMC42NDZjMjcuMjk0LDAsNTQuNTgzLDAsODEuODc1LDBjNi44NjUsMCw2Ljg2NS0xMC42NDYsMC0xMC42NDYmIzEwOyYjOTsmIzk7JiM5OyYjOTtDMTE1LjQ0MiwxMTIuNTMzLDg4LjE1MywxMTIuNTMzLDYwLjg1OSwxMTIuNTMzeiIvPiYjeGE7CQkJPHBhdGggZD0iTTE0Mi43MzQsMTM3LjcwNGMtMjcuMjkyLDAtNTQuNTgxLDAtODEuODc1LDBjLTYuODUzLDAtNi44NTMsMTAuNjM0LDAsMTAuNjM0YzI3LjI5NCwwLDU0LjU4MywwLDgxLjg3NSwwJiMxMDsmIzk7JiM5OyYjOTsmIzk7QzE0OS42LDE0OC4zMzgsMTQ5LjYsMTM3LjcwNCwxNDIuNzM0LDEzNy43MDR6Ii8+JiN4YTsJCQk8cGF0aCBkPSJNMTQyLjczNCwxNjEuMDE4Yy0yNy4yOTIsMC01NC41ODEsMC04MS44NzUsMGMtNi44NTMsMC02Ljg1MywxMC42MzMsMCwxMC42MzNjMjcuMjk0LDAsNTQuNTgzLDAsODEuODc1LDAmIzEwOyYjOTsmIzk7JiM5OyYjOTtDMTQ5LjYsMTcxLjY1LDE0OS42LDE2MS4wMTgsMTQyLjczNCwxNjEuMDE4eiIvPiYjeGE7CQkJPHBhdGggZD0iTTE0Mi43MzQsMTg2LjE4NGMtMjcuMjkyLDAtNTQuNTgxLDAtODEuODc1LDBjLTYuODUzLDAtNi44NTMsMTAuNjI5LDAsMTAuNjI5YzI3LjI5NCwwLDU0LjU4MywwLDgxLjg3NSwwJiMxMDsmIzk7JiM5OyYjOTsmIzk7QzE0OS42LDE5Ni44MTIsMTQ5LjYsMTg2LjE4NCwxNDIuNzM0LDE4Ni4xODR6Ii8+JiN4YTsJCQk8cGF0aCBkPSJNMTQxLjE3LDIwOS45MzRjLTI3LjMwMiwwLTU0LjYwMSwwLTgxLjg5LDBjLTYuODQ4LDAtNi44NDgsMTAuNjMzLDAsMTAuNjMzYzI3LjI4OSwwLDU0LjU4OCwwLDgxLjg5LDAmIzEwOyYjOTsmIzk7JiM5OyYjOTtDMTQ4LjAxNSwyMjAuNTY2LDE0OC4wMTUsMjA5LjkzNCwxNDEuMTcsMjA5LjkzNHoiLz4mI3hhOwkJCTxwYXRoIGQ9Ik0yNS4zNjIsNTguMDg3VjI1Ni42MWgxNTIuODc3Vjg1LjYzbC0yOC40MDYtMjcuNTQzSDI1LjM2MnogTTE2NS4wMjYsMjQzLjM5M0gzOC41ODVWNzEuMzA1aDEwNC40NDN2MjAuOTdoMjEuOTg4JiMxMDsmIzk7JiM5OyYjOTsmIzk7djE1MS4xMThIMTY1LjAyNnoiLz4mI3hhOwkJCTxwb2x5Z29uIHBvaW50cz0iNTEuMjA0LDI3LjY2NyA1MS4yMDQsNTAuNjQ1IDY0LjQyNyw1MC42NDUgNjQuNDI3LDQwLjg4IDE2OC44NzUsNDAuODggMTY4Ljg3NSw2MS44NSAxOTAuODY4LDYxLjg1ICYjMTA7JiM5OyYjOTsmIzk7JiM5OzE5MC44NjgsMjEyLjk3MSAxODUuMDU5LDIxMi45NzEgMTg1LjA1OSwyMjYuMTg4IDIwNC4wODYsMjI2LjE4OCAyMDQuMDg2LDU1LjIwNSAxNzUuNjgsMjcuNjY3Ii8+JiN4YTsJCQk8cG9seWdvbiBwb2ludHM9IjIwMi44MzcsMCA3OC4zNjMsMCA3OC4zNjMsMjIuOTgzIDkxLjU4MSwyMi45ODMgOTEuNTgxLDEzLjIxOCAxOTYuMDMyLDEzLjIxOCAxOTYuMDMyLDM0LjE4OCAyMTguMDI1LDM0LjE4OCAmIzEwOyYjOTsmIzk7JiM5OyYjOTsyMTguMDI1LDE4NS4zMDYgMjEyLjIyMSwxODUuMzA2IDIxMi4yMjEsMTk4LjUyMyAyMzEuMjQ4LDE5OC41MjMgMjMxLjI0OCwyNy41NDMiLz4mI3hhOwkJPC9nPiYjeGE7CTwvZz4mI3hhOzwvZz4mI3hhOzwvc3ZnPg==;strokeWidth=2;fontSize=20;" vertex="1" parent="17"><mxGeometry x="170" y="50" width="20" height="20" as="geometry"/></mxCell><mxCell id="20" value="Convert&lt;br&gt;with asciidoctor-pdf" style="edgeStyle=orthogonalEdgeStyle;rounded=0;orthogonalLoop=1;jettySize=auto;html=1;strokeWidth=2;fontSize=20;fontColor=default;exitX=0.5;exitY=1;exitDx=0;exitDy=0;" edge="1" parent="1" source="21" target="18"><mxGeometry x="-0.025" relative="1" as="geometry"><mxPoint x="135" y="281" as="sourcePoint"/><mxPoint x="135" y="361" as="targetPoint"/><mxPoint as="offset"/></mxGeometry></mxCell><mxCell id="21" value="AsciiDoctor" style="shape=module;align=center;spacingLeft=20;align=center;verticalAlign=middle;strokeWidth=2;fontSize=20;jettyWidth=20;jettyHeight=16;fillColor=#f8cecc;strokeColor=#b85450;" vertex="1" parent="1"><mxGeometry x="40" y="200" width="200" height="80" as="geometry"/></mxCell><mxCell id="22" value="" style="group" vertex="1" connectable="0" parent="1"><mxGeometry x="40" y="40" width="200" height="80" as="geometry"/></mxCell><mxCell id="23" value="&lt;font style=&quot;font-size: 20px;&quot;&gt;AsciiDoc&lt;br&gt;&lt;/font&gt;" style="rounded=1;whiteSpace=wrap;html=1;strokeWidth=2;fillColor=#dae8fc;strokeColor=#6c8ebf;" vertex="1" parent="22"><mxGeometry width="200" height="80" as="geometry"/></mxCell><mxCell id="24" value="" style="shape=image;verticalLabelPosition=bottom;verticalAlign=top;imageAspect=0;image=data:image/svg+xml,PHN2ZyB4bWxuczp4bGluaz0iaHR0cDovL3d3dy53My5vcmcvMTk5OS94bGluayIgeG1sbnM9Imh0dHA6Ly93d3cudzMub3JnLzIwMDAvc3ZnIiB4bWw6c3BhY2U9InByZXNlcnZlIiB2aWV3Qm94PSIwIDAgMjU2LjYxIDI1Ni42MSIgaGVpZ2h0PSI4MDBweCIgd2lkdGg9IjgwMHB4IiBpZD0iQ2FwYV8xIiB2ZXJzaW9uPSIxLjEiIGZpbGw9IiMwMDAwMDAiPiYjeGE7PGc+JiN4YTsJPGcgaWQ9Il94MzhfN18zNl8iPiYjeGE7CQk8Zz4mI3hhOwkJCTxwYXRoIGQ9Ik02MC44NTksMTEyLjUzM2MtNi44NTMsMC02Ljg1MywxMC42NDYsMCwxMC42NDZjMjcuMjk0LDAsNTQuNTgzLDAsODEuODc1LDBjNi44NjUsMCw2Ljg2NS0xMC42NDYsMC0xMC42NDYmIzEwOyYjOTsmIzk7JiM5OyYjOTtDMTE1LjQ0MiwxMTIuNTMzLDg4LjE1MywxMTIuNTMzLDYwLjg1OSwxMTIuNTMzeiIvPiYjeGE7CQkJPHBhdGggZD0iTTE0Mi43MzQsMTM3LjcwNGMtMjcuMjkyLDAtNTQuNTgxLDAtODEuODc1LDBjLTYuODUzLDAtNi44NTMsMTAuNjM0LDAsMTAuNjM0YzI3LjI5NCwwLDU0LjU4MywwLDgxLjg3NSwwJiMxMDsmIzk7JiM5OyYjOTsmIzk7QzE0OS42LDE0OC4zMzgsMTQ5LjYsMTM3LjcwNCwxNDIuNzM0LDEzNy43MDR6Ii8+JiN4YTsJCQk8cGF0aCBkPSJNMTQyLjczNCwxNjEuMDE4Yy0yNy4yOTIsMC01NC41ODEsMC04MS44NzUsMGMtNi44NTMsMC02Ljg1MywxMC42MzMsMCwxMC42MzNjMjcuMjk0LDAsNTQuNTgzLDAsODEuODc1LDAmIzEwOyYjOTsmIzk7JiM5OyYjOTtDMTQ5LjYsMTcxLjY1LDE0OS42LDE2MS4wMTgsMTQyLjczNCwxNjEuMDE4eiIvPiYjeGE7CQkJPHBhdGggZD0iTTE0Mi43MzQsMTg2LjE4NGMtMjcuMjkyLDAtNTQuNTgxLDAtODEuODc1LDBjLTYuODUzLDAtNi44NTMsMTAuNjI5LDAsMTAuNjI5YzI3LjI5NCwwLDU0LjU4MywwLDgxLjg3NSwwJiMxMDsmIzk7JiM5OyYjOTsmIzk7QzE0OS42LDE5Ni44MTIsMTQ5LjYsMTg2LjE4NCwxNDIuNzM0LDE4Ni4xODR6Ii8+JiN4YTsJCQk8cGF0aCBkPSJNMTQxLjE3LDIwOS45MzRjLTI3LjMwMiwwLTU0LjYwMSwwLTgxLjg5LDBjLTYuODQ4LDAtNi44NDgsMTAuNjMzLDAsMTAuNjMzYzI3LjI4OSwwLDU0LjU4OCwwLDgxLjg5LDAmIzEwOyYjOTsmIzk7JiM5OyYjOTtDMTQ4LjAxNSwyMjAuNTY2LDE0OC4wMTUsMjA5LjkzNCwxNDEuMTcsMjA5LjkzNHoiLz4mI3hhOwkJCTxwYXRoIGQ9Ik0yNS4zNjIsNTguMDg3VjI1Ni42MWgxNTIuODc3Vjg1LjYzbC0yOC40MDYtMjcuNTQzSDI1LjM2MnogTTE2NS4wMjYsMjQzLjM5M0gzOC41ODVWNzEuMzA1aDEwNC40NDN2MjAuOTdoMjEuOTg4JiMxMDsmIzk7JiM5OyYjOTsmIzk7djE1MS4xMThIMTY1LjAyNnoiLz4mI3hhOwkJCTxwb2x5Z29uIHBvaW50cz0iNTEuMjA0LDI3LjY2NyA1MS4yMDQsNTAuNjQ1IDY0LjQyNyw1MC42NDUgNjQuNDI3LDQwLjg4IDE2OC44NzUsNDAuODggMTY4Ljg3NSw2MS44NSAxOTAuODY4LDYxLjg1ICYjMTA7JiM5OyYjOTsmIzk7JiM5OzE5MC44NjgsMjEyLjk3MSAxODUuMDU5LDIxMi45NzEgMTg1LjA1OSwyMjYuMTg4IDIwNC4wODYsMjI2LjE4OCAyMDQuMDg2LDU1LjIwNSAxNzUuNjgsMjcuNjY3Ii8+JiN4YTsJCQk8cG9seWdvbiBwb2ludHM9IjIwMi44MzcsMCA3OC4zNjMsMCA3OC4zNjMsMjIuOTgzIDkxLjU4MSwyMi45ODMgOTEuNTgxLDEzLjIxOCAxOTYuMDMyLDEzLjIxOCAxOTYuMDMyLDM0LjE4OCAyMTguMDI1LDM0LjE4OCAmIzEwOyYjOTsmIzk7JiM5OyYjOTsyMTguMDI1LDE4NS4zMDYgMjEyLjIyMSwxODUuMzA2IDIxMi4yMjEsMTk4LjUyMyAyMzEuMjQ4LDE5OC41MjMgMjMxLjI0OCwyNy41NDMiLz4mI3hhOwkJPC9nPiYjeGE7CTwvZz4mI3hhOzwvZz4mI3hhOzwvc3ZnPg==;strokeWidth=2;fontSize=20;" vertex="1" parent="22"><mxGeometry x="170" y="50" width="20" height="20" as="geometry"/></mxCell><mxCell id="25" value="Upload&lt;br&gt;with Stdin" style="edgeStyle=orthogonalEdgeStyle;rounded=0;orthogonalLoop=1;jettySize=auto;html=1;entryX=0.5;entryY=0;entryDx=0;entryDy=0;strokeWidth=2;fontSize=20;fontColor=default;" edge="1" parent="1" source="23" target="21"><mxGeometry relative="1" as="geometry"/></mxCell><mxCell id="26" value="" style="group" vertex="1" connectable="0" parent="1"><mxGeometry x="320" y="520" width="200" height="80" as="geometry"/></mxCell><mxCell id="27" value="&lt;font style=&quot;font-size: 20px;&quot;&gt;AsciiDoc&lt;br&gt;&lt;/font&gt;" style="rounded=1;whiteSpace=wrap;html=1;strokeWidth=2;fillColor=#dae8fc;strokeColor=#6c8ebf;" vertex="1" parent="26"><mxGeometry width="200" height="80" as="geometry"/></mxCell><mxCell id="28" value="" style="shape=image;verticalLabelPosition=bottom;verticalAlign=top;imageAspect=0;image=data:image/svg+xml,PHN2ZyB4bWxuczp4bGluaz0iaHR0cDovL3d3dy53My5vcmcvMTk5OS94bGluayIgeG1sbnM9Imh0dHA6Ly93d3cudzMub3JnLzIwMDAvc3ZnIiB4bWw6c3BhY2U9InByZXNlcnZlIiB2aWV3Qm94PSIwIDAgMjU2LjYxIDI1Ni42MSIgaGVpZ2h0PSI4MDBweCIgd2lkdGg9IjgwMHB4IiBpZD0iQ2FwYV8xIiB2ZXJzaW9uPSIxLjEiIGZpbGw9IiMwMDAwMDAiPiYjeGE7PGc+JiN4YTsJPGcgaWQ9Il94MzhfN18zNl8iPiYjeGE7CQk8Zz4mI3hhOwkJCTxwYXRoIGQ9Ik02MC44NTksMTEyLjUzM2MtNi44NTMsMC02Ljg1MywxMC42NDYsMCwxMC42NDZjMjcuMjk0LDAsNTQuNTgzLDAsODEuODc1LDBjNi44NjUsMCw2Ljg2NS0xMC42NDYsMC0xMC42NDYmIzEwOyYjOTsmIzk7JiM5OyYjOTtDMTE1LjQ0MiwxMTIuNTMzLDg4LjE1MywxMTIuNTMzLDYwLjg1OSwxMTIuNTMzeiIvPiYjeGE7CQkJPHBhdGggZD0iTTE0Mi43MzQsMTM3LjcwNGMtMjcuMjkyLDAtNTQuNTgxLDAtODEuODc1LDBjLTYuODUzLDAtNi44NTMsMTAuNjM0LDAsMTAuNjM0YzI3LjI5NCwwLDU0LjU4MywwLDgxLjg3NSwwJiMxMDsmIzk7JiM5OyYjOTsmIzk7QzE0OS42LDE0OC4zMzgsMTQ5LjYsMTM3LjcwNCwxNDIuNzM0LDEzNy43MDR6Ii8+JiN4YTsJCQk8cGF0aCBkPSJNMTQyLjczNCwxNjEuMDE4Yy0yNy4yOTIsMC01NC41ODEsMC04MS44NzUsMGMtNi44NTMsMC02Ljg1MywxMC42MzMsMCwxMC42MzNjMjcuMjk0LDAsNTQuNTgzLDAsODEuODc1LDAmIzEwOyYjOTsmIzk7JiM5OyYjOTtDMTQ5LjYsMTcxLjY1LDE0OS42LDE2MS4wMTgsMTQyLjczNCwxNjEuMDE4eiIvPiYjeGE7CQkJPHBhdGggZD0iTTE0Mi43MzQsMTg2LjE4NGMtMjcuMjkyLDAtNTQuNTgxLDAtODEuODc1LDBjLTYuODUzLDAtNi44NTMsMTAuNjI5LDAsMTAuNjI5YzI3LjI5NCwwLDU0LjU4MywwLDgxLjg3NSwwJiMxMDsmIzk7JiM5OyYjOTsmIzk7QzE0OS42LDE5Ni44MTIsMTQ5LjYsMTg2LjE4NCwxNDIuNzM0LDE4Ni4xODR6Ii8+JiN4YTsJCQk8cGF0aCBkPSJNMTQxLjE3LDIwOS45MzRjLTI3LjMwMiwwLTU0LjYwMSwwLTgxLjg5LDBjLTYuODQ4LDAtNi44NDgsMTAuNjMzLDAsMTAuNjMzYzI3LjI4OSwwLDU0LjU4OCwwLDgxLjg5LDAmIzEwOyYjOTsmIzk7JiM5OyYjOTtDMTQ4LjAxNSwyMjAuNTY2LDE0OC4wMTUsMjA5LjkzNCwxNDEuMTcsMjA5LjkzNHoiLz4mI3hhOwkJCTxwYXRoIGQ9Ik0yNS4zNjIsNTguMDg3VjI1Ni42MWgxNTIuODc3Vjg1LjYzbC0yOC40MDYtMjcuNTQzSDI1LjM2MnogTTE2NS4wMjYsMjQzLjM5M0gzOC41ODVWNzEuMzA1aDEwNC40NDN2MjAuOTdoMjEuOTg4JiMxMDsmIzk7JiM5OyYjOTsmIzk7djE1MS4xMThIMTY1LjAyNnoiLz4mI3hhOwkJCTxwb2x5Z29uIHBvaW50cz0iNTEuMjA0LDI3LjY2NyA1MS4yMDQsNTAuNjQ1IDY0LjQyNyw1MC42NDUgNjQuNDI3LDQwLjg4IDE2OC44NzUsNDAuODggMTY4Ljg3NSw2MS44NSAxOTAuODY4LDYxLjg1ICYjMTA7JiM5OyYjOTsmIzk7JiM5OzE5MC44NjgsMjEyLjk3MSAxODUuMDU5LDIxMi45NzEgMTg1LjA1OSwyMjYuMTg4IDIwNC4wODYsMjI2LjE4OCAyMDQuMDg2LDU1LjIwNSAxNzUuNjgsMjcuNjY3Ii8+JiN4YTsJCQk8cG9seWdvbiBwb2ludHM9IjIwMi44MzcsMCA3OC4zNjMsMCA3OC4zNjMsMjIuOTgzIDkxLjU4MSwyMi45ODMgOTEuNTgxLDEzLjIxOCAxOTYuMDMyLDEzLjIxOCAxOTYuMDMyLDM0LjE4OCAyMTguMDI1LDM0LjE4OCAmIzEwOyYjOTsmIzk7JiM5OyYjOTsyMTguMDI1LDE4NS4zMDYgMjEyLjIyMSwxODUuMzA2IDIxMi4yMjEsMTk4LjUyMyAyMzEuMjQ4LDE5OC41MjMgMjMxLjI0OCwyNy41NDMiLz4mI3hhOwkJPC9nPiYjeGE7CTwvZz4mI3hhOzwvZz4mI3hhOzwvc3ZnPg==;strokeWidth=2;fontSize=20;" vertex="1" parent="26"><mxGeometry x="170" y="50" width="20" height="20" as="geometry"/></mxCell><mxCell id="29" value="Convert&lt;br&gt;with asciidoctor-pdf" style="edgeStyle=orthogonalEdgeStyle;rounded=0;orthogonalLoop=1;jettySize=auto;html=1;strokeWidth=2;fontSize=20;fontColor=default;exitX=0.5;exitY=1;exitDx=0;exitDy=0;" edge="1" parent="1" source="30" target="27"><mxGeometry x="-0.025" relative="1" as="geometry"><mxPoint x="415" y="441" as="sourcePoint"/><mxPoint x="415" y="521" as="targetPoint"/><mxPoint as="offset"/></mxGeometry></mxCell><mxCell id="30" value="Pandoc" style="shape=module;align=center;spacingLeft=20;align=center;verticalAlign=middle;strokeWidth=2;fontSize=20;jettyWidth=20;jettyHeight=16;fillColor=#f8cecc;strokeColor=#b85450;" vertex="1" parent="1"><mxGeometry x="320" y="360" width="200" height="80" as="geometry"/></mxCell><mxCell id="31" value="" style="group" vertex="1" connectable="0" parent="1"><mxGeometry x="320" y="40" width="200" height="80" as="geometry"/></mxCell><mxCell id="32" value="&lt;font style=&quot;font-size: 20px;&quot;&gt;&lt;span style=&quot;&quot;&gt;Confluence Page&lt;/span&gt;&lt;br&gt;&lt;/font&gt;" style="rounded=1;whiteSpace=wrap;html=1;strokeWidth=2;fillColor=#dae8fc;strokeColor=#6c8ebf;" vertex="1" parent="31"><mxGeometry width="200" height="80" as="geometry"/></mxCell><mxCell id="33" value="" style="shape=image;verticalLabelPosition=bottom;verticalAlign=top;imageAspect=0;image=data:image/svg+xml,PHN2ZyB4bWxuczp4bGluaz0iaHR0cDovL3d3dy53My5vcmcvMTk5OS94bGluayIgeG1sbnM9Imh0dHA6Ly93d3cudzMub3JnLzIwMDAvc3ZnIiB4bWw6c3BhY2U9InByZXNlcnZlIiB2aWV3Qm94PSIwIDAgMjU2LjYxIDI1Ni42MSIgaGVpZ2h0PSI4MDBweCIgd2lkdGg9IjgwMHB4IiBpZD0iQ2FwYV8xIiB2ZXJzaW9uPSIxLjEiIGZpbGw9IiMwMDAwMDAiPiYjeGE7PGc+JiN4YTsJPGcgaWQ9Il94MzhfN18zNl8iPiYjeGE7CQk8Zz4mI3hhOwkJCTxwYXRoIGQ9Ik02MC44NTksMTEyLjUzM2MtNi44NTMsMC02Ljg1MywxMC42NDYsMCwxMC42NDZjMjcuMjk0LDAsNTQuNTgzLDAsODEuODc1LDBjNi44NjUsMCw2Ljg2NS0xMC42NDYsMC0xMC42NDYmIzEwOyYjOTsmIzk7JiM5OyYjOTtDMTE1LjQ0MiwxMTIuNTMzLDg4LjE1MywxMTIuNTMzLDYwLjg1OSwxMTIuNTMzeiIvPiYjeGE7CQkJPHBhdGggZD0iTTE0Mi43MzQsMTM3LjcwNGMtMjcuMjkyLDAtNTQuNTgxLDAtODEuODc1LDBjLTYuODUzLDAtNi44NTMsMTAuNjM0LDAsMTAuNjM0YzI3LjI5NCwwLDU0LjU4MywwLDgxLjg3NSwwJiMxMDsmIzk7JiM5OyYjOTsmIzk7QzE0OS42LDE0OC4zMzgsMTQ5LjYsMTM3LjcwNCwxNDIuNzM0LDEzNy43MDR6Ii8+JiN4YTsJCQk8cGF0aCBkPSJNMTQyLjczNCwxNjEuMDE4Yy0yNy4yOTIsMC01NC41ODEsMC04MS44NzUsMGMtNi44NTMsMC02Ljg1MywxMC42MzMsMCwxMC42MzNjMjcuMjk0LDAsNTQuNTgzLDAsODEuODc1LDAmIzEwOyYjOTsmIzk7JiM5OyYjOTtDMTQ5LjYsMTcxLjY1LDE0OS42LDE2MS4wMTgsMTQyLjczNCwxNjEuMDE4eiIvPiYjeGE7CQkJPHBhdGggZD0iTTE0Mi43MzQsMTg2LjE4NGMtMjcuMjkyLDAtNTQuNTgxLDAtODEuODc1LDBjLTYuODUzLDAtNi44NTMsMTAuNjI5LDAsMTAuNjI5YzI3LjI5NCwwLDU0LjU4MywwLDgxLjg3NSwwJiMxMDsmIzk7JiM5OyYjOTsmIzk7QzE0OS42LDE5Ni44MTIsMTQ5LjYsMTg2LjE4NCwxNDIuNzM0LDE4Ni4xODR6Ii8+JiN4YTsJCQk8cGF0aCBkPSJNMTQxLjE3LDIwOS45MzRjLTI3LjMwMiwwLTU0LjYwMSwwLTgxLjg5LDBjLTYuODQ4LDAtNi44NDgsMTAuNjMzLDAsMTAuNjMzYzI3LjI4OSwwLDU0LjU4OCwwLDgxLjg5LDAmIzEwOyYjOTsmIzk7JiM5OyYjOTtDMTQ4LjAxNSwyMjAuNTY2LDE0OC4wMTUsMjA5LjkzNCwxNDEuMTcsMjA5LjkzNHoiLz4mI3hhOwkJCTxwYXRoIGQ9Ik0yNS4zNjIsNTguMDg3VjI1Ni42MWgxNTIuODc3Vjg1LjYzbC0yOC40MDYtMjcuNTQzSDI1LjM2MnogTTE2NS4wMjYsMjQzLjM5M0gzOC41ODVWNzEuMzA1aDEwNC40NDN2MjAuOTdoMjEuOTg4JiMxMDsmIzk7JiM5OyYjOTsmIzk7djE1MS4xMThIMTY1LjAyNnoiLz4mI3hhOwkJCTxwb2x5Z29uIHBvaW50cz0iNTEuMjA0LDI3LjY2NyA1MS4yMDQsNTAuNjQ1IDY0LjQyNyw1MC42NDUgNjQuNDI3LDQwLjg4IDE2OC44NzUsNDAuODggMTY4Ljg3NSw2MS44NSAxOTAuODY4LDYxLjg1ICYjMTA7JiM5OyYjOTsmIzk7JiM5OzE5MC44NjgsMjEyLjk3MSAxODUuMDU5LDIxMi45NzEgMTg1LjA1OSwyMjYuMTg4IDIwNC4wODYsMjI2LjE4OCAyMDQuMDg2LDU1LjIwNSAxNzUuNjgsMjcuNjY3Ii8+JiN4YTsJCQk8cG9seWdvbiBwb2ludHM9IjIwMi44MzcsMCA3OC4zNjMsMCA3OC4zNjMsMjIuOTgzIDkxLjU4MSwyMi45ODMgOTEuNTgxLDEzLjIxOCAxOTYuMDMyLDEzLjIxOCAxOTYuMDMyLDM0LjE4OCAyMTguMDI1LDM0LjE4OCAmIzEwOyYjOTsmIzk7JiM5OyYjOTsyMTguMDI1LDE4NS4zMDYgMjEyLjIyMSwxODUuMzA2IDIxMi4yMjEsMTk4LjUyMyAyMzEuMjQ4LDE5OC41MjMgMjMxLjI0OCwyNy41NDMiLz4mI3hhOwkJPC9nPiYjeGE7CTwvZz4mI3hhOzwvZz4mI3hhOzwvc3ZnPg==;strokeWidth=2;fontSize=20;" vertex="1" parent="31"><mxGeometry x="170" y="50" width="20" height="20" as="geometry"/></mxCell><mxCell id="34" value="Download&lt;br&gt;with REST API" style="edgeStyle=orthogonalEdgeStyle;rounded=0;orthogonalLoop=1;jettySize=auto;html=1;strokeWidth=2;fontSize=20;fontColor=default;" edge="1" parent="1" source="32"><mxGeometry relative="1" as="geometry"><mxPoint x="420" y="200" as="targetPoint"/></mxGeometry></mxCell><mxCell id="35" value="" style="group" vertex="1" connectable="0" parent="1"><mxGeometry x="600" y="680" width="200" height="80" as="geometry"/></mxCell><mxCell id="36" value="&lt;font style=&quot;font-size: 20px;&quot;&gt;&lt;span style=&quot;&quot;&gt;Confluence Page&lt;/span&gt;&lt;br&gt;&lt;/font&gt;" style="rounded=1;whiteSpace=wrap;html=1;strokeWidth=2;fillColor=#dae8fc;strokeColor=#6c8ebf;" vertex="1" parent="35"><mxGeometry width="200" height="80" as="geometry"/></mxCell><mxCell id="37" value="" style="shape=image;verticalLabelPosition=bottom;verticalAlign=top;imageAspect=0;image=data:image/svg+xml,PHN2ZyB4bWxuczp4bGluaz0iaHR0cDovL3d3dy53My5vcmcvMTk5OS94bGluayIgeG1sbnM9Imh0dHA6Ly93d3cudzMub3JnLzIwMDAvc3ZnIiB4bWw6c3BhY2U9InByZXNlcnZlIiB2aWV3Qm94PSIwIDAgMjU2LjYxIDI1Ni42MSIgaGVpZ2h0PSI4MDBweCIgd2lkdGg9IjgwMHB4IiBpZD0iQ2FwYV8xIiB2ZXJzaW9uPSIxLjEiIGZpbGw9IiMwMDAwMDAiPiYjeGE7PGc+JiN4YTsJPGcgaWQ9Il94MzhfN18zNl8iPiYjeGE7CQk8Zz4mI3hhOwkJCTxwYXRoIGQ9Ik02MC44NTksMTEyLjUzM2MtNi44NTMsMC02Ljg1MywxMC42NDYsMCwxMC42NDZjMjcuMjk0LDAsNTQuNTgzLDAsODEuODc1LDBjNi44NjUsMCw2Ljg2NS0xMC42NDYsMC0xMC42NDYmIzEwOyYjOTsmIzk7JiM5OyYjOTtDMTE1LjQ0MiwxMTIuNTMzLDg4LjE1MywxMTIuNTMzLDYwLjg1OSwxMTIuNTMzeiIvPiYjeGE7CQkJPHBhdGggZD0iTTE0Mi43MzQsMTM3LjcwNGMtMjcuMjkyLDAtNTQuNTgxLDAtODEuODc1LDBjLTYuODUzLDAtNi44NTMsMTAuNjM0LDAsMTAuNjM0YzI3LjI5NCwwLDU0LjU4MywwLDgxLjg3NSwwJiMxMDsmIzk7JiM5OyYjOTsmIzk7QzE0OS42LDE0OC4zMzgsMTQ5LjYsMTM3LjcwNCwxNDIuNzM0LDEzNy43MDR6Ii8+JiN4YTsJCQk8cGF0aCBkPSJNMTQyLjczNCwxNjEuMDE4Yy0yNy4yOTIsMC01NC41ODEsMC04MS44NzUsMGMtNi44NTMsMC02Ljg1MywxMC42MzMsMCwxMC42MzNjMjcuMjk0LDAsNTQuNTgzLDAsODEuODc1LDAmIzEwOyYjOTsmIzk7JiM5OyYjOTtDMTQ5LjYsMTcxLjY1LDE0OS42LDE2MS4wMTgsMTQyLjczNCwxNjEuMDE4eiIvPiYjeGE7CQkJPHBhdGggZD0iTTE0Mi43MzQsMTg2LjE4NGMtMjcuMjkyLDAtNTQuNTgxLDAtODEuODc1LDBjLTYuODUzLDAtNi44NTMsMTAuNjI5LDAsMTAuNjI5YzI3LjI5NCwwLDU0LjU4MywwLDgxLjg3NSwwJiMxMDsmIzk7JiM5OyYjOTsmIzk7QzE0OS42LDE5Ni44MTIsMTQ5LjYsMTg2LjE4NCwxNDIuNzM0LDE4Ni4xODR6Ii8+JiN4YTsJCQk8cGF0aCBkPSJNMTQxLjE3LDIwOS45MzRjLTI3LjMwMiwwLTU0LjYwMSwwLTgxLjg5LDBjLTYuODQ4LDAtNi44NDgsMTAuNjMzLDAsMTAuNjMzYzI3LjI4OSwwLDU0LjU4OCwwLDgxLjg5LDAmIzEwOyYjOTsmIzk7JiM5OyYjOTtDMTQ4LjAxNSwyMjAuNTY2LDE0OC4wMTUsMjA5LjkzNCwxNDEuMTcsMjA5LjkzNHoiLz4mI3hhOwkJCTxwYXRoIGQ9Ik0yNS4zNjIsNTguMDg3VjI1Ni42MWgxNTIuODc3Vjg1LjYzbC0yOC40MDYtMjcuNTQzSDI1LjM2MnogTTE2NS4wMjYsMjQzLjM5M0gzOC41ODVWNzEuMzA1aDEwNC40NDN2MjAuOTdoMjEuOTg4JiMxMDsmIzk7JiM5OyYjOTsmIzk7djE1MS4xMThIMTY1LjAyNnoiLz4mI3hhOwkJCTxwb2x5Z29uIHBvaW50cz0iNTEuMjA0LDI3LjY2NyA1MS4yMDQsNTAuNjQ1IDY0LjQyNyw1MC42NDUgNjQuNDI3LDQwLjg4IDE2OC44NzUsNDAuODggMTY4Ljg3NSw2MS44NSAxOTAuODY4LDYxLjg1ICYjMTA7JiM5OyYjOTsmIzk7JiM5OzE5MC44NjgsMjEyLjk3MSAxODUuMDU5LDIxMi45NzEgMTg1LjA1OSwyMjYuMTg4IDIwNC4wODYsMjI2LjE4OCAyMDQuMDg2LDU1LjIwNSAxNzUuNjgsMjcuNjY3Ii8+JiN4YTsJCQk8cG9seWdvbiBwb2ludHM9IjIwMi44MzcsMCA3OC4zNjMsMCA3OC4zNjMsMjIuOTgzIDkxLjU4MSwyMi45ODMgOTEuNTgxLDEzLjIxOCAxOTYuMDMyLDEzLjIxOCAxOTYuMDMyLDM0LjE4OCAyMTguMDI1LDM0LjE4OCAmIzEwOyYjOTsmIzk7JiM5OyYjOTsyMTguMDI1LDE4NS4zMDYgMjEyLjIyMSwxODUuMzA2IDIxMi4yMjEsMTk4LjUyMyAyMzEuMjQ4LDE5OC41MjMgMjMxLjI0OCwyNy41NDMiLz4mI3hhOwkJPC9nPiYjeGE7CTwvZz4mI3hhOzwvZz4mI3hhOzwvc3ZnPg==;strokeWidth=2;fontSize=20;" vertex="1" parent="35"><mxGeometry x="170" y="50" width="20" height="20" as="geometry"/></mxCell><mxCell id="38" value="Convert&lt;br&gt;with internal tools" style="edgeStyle=orthogonalEdgeStyle;rounded=0;orthogonalLoop=1;jettySize=auto;html=1;strokeWidth=2;fontSize=20;fontColor=default;exitX=0.5;exitY=1;exitDx=0;exitDy=0;entryX=0.5;entryY=0;entryDx=0;entryDy=0;" edge="1" parent="1" source="3" target="36"><mxGeometry x="-0.025" relative="1" as="geometry"><mxPoint x="700" y="620" as="sourcePoint"/><mxPoint x="580" y="640" as="targetPoint"/><mxPoint as="offset"/></mxGeometry></mxCell><mxCell id="39" value="" style="group" vertex="1" connectable="0" parent="1"><mxGeometry x="320" y="200" width="200" height="80" as="geometry"/></mxCell><mxCell id="40" value="&lt;font style=&quot;font-size: 20px;&quot;&gt;&lt;span style=&quot;&quot;&gt;HTML5&lt;/span&gt;&lt;br&gt;&lt;/font&gt;" style="rounded=1;whiteSpace=wrap;html=1;strokeWidth=2;fillColor=#dae8fc;strokeColor=#6c8ebf;" vertex="1" parent="39"><mxGeometry width="200" height="80" as="geometry"/></mxCell><mxCell id="41" value="" style="shape=image;verticalLabelPosition=bottom;verticalAlign=top;imageAspect=0;image=data:image/svg+xml,PHN2ZyB4bWxuczp4bGluaz0iaHR0cDovL3d3dy53My5vcmcvMTk5OS94bGluayIgeG1sbnM9Imh0dHA6Ly93d3cudzMub3JnLzIwMDAvc3ZnIiB4bWw6c3BhY2U9InByZXNlcnZlIiB2aWV3Qm94PSIwIDAgMjU2LjYxIDI1Ni42MSIgaGVpZ2h0PSI4MDBweCIgd2lkdGg9IjgwMHB4IiBpZD0iQ2FwYV8xIiB2ZXJzaW9uPSIxLjEiIGZpbGw9IiMwMDAwMDAiPiYjeGE7PGc+JiN4YTsJPGcgaWQ9Il94MzhfN18zNl8iPiYjeGE7CQk8Zz4mI3hhOwkJCTxwYXRoIGQ9Ik02MC44NTksMTEyLjUzM2MtNi44NTMsMC02Ljg1MywxMC42NDYsMCwxMC42NDZjMjcuMjk0LDAsNTQuNTgzLDAsODEuODc1LDBjNi44NjUsMCw2Ljg2NS0xMC42NDYsMC0xMC42NDYmIzEwOyYjOTsmIzk7JiM5OyYjOTtDMTE1LjQ0MiwxMTIuNTMzLDg4LjE1MywxMTIuNTMzLDYwLjg1OSwxMTIuNTMzeiIvPiYjeGE7CQkJPHBhdGggZD0iTTE0Mi43MzQsMTM3LjcwNGMtMjcuMjkyLDAtNTQuNTgxLDAtODEuODc1LDBjLTYuODUzLDAtNi44NTMsMTAuNjM0LDAsMTAuNjM0YzI3LjI5NCwwLDU0LjU4MywwLDgxLjg3NSwwJiMxMDsmIzk7JiM5OyYjOTsmIzk7QzE0OS42LDE0OC4zMzgsMTQ5LjYsMTM3LjcwNCwxNDIuNzM0LDEzNy43MDR6Ii8+JiN4YTsJCQk8cGF0aCBkPSJNMTQyLjczNCwxNjEuMDE4Yy0yNy4yOTIsMC01NC41ODEsMC04MS44NzUsMGMtNi44NTMsMC02Ljg1MywxMC42MzMsMCwxMC42MzNjMjcuMjk0LDAsNTQuNTgzLDAsODEuODc1LDAmIzEwOyYjOTsmIzk7JiM5OyYjOTtDMTQ5LjYsMTcxLjY1LDE0OS42LDE2MS4wMTgsMTQyLjczNCwxNjEuMDE4eiIvPiYjeGE7CQkJPHBhdGggZD0iTTE0Mi43MzQsMTg2LjE4NGMtMjcuMjkyLDAtNTQuNTgxLDAtODEuODc1LDBjLTYuODUzLDAtNi44NTMsMTAuNjI5LDAsMTAuNjI5YzI3LjI5NCwwLDU0LjU4MywwLDgxLjg3NSwwJiMxMDsmIzk7JiM5OyYjOTsmIzk7QzE0OS42LDE5Ni44MTIsMTQ5LjYsMTg2LjE4NCwxNDIuNzM0LDE4Ni4xODR6Ii8+JiN4YTsJCQk8cGF0aCBkPSJNMTQxLjE3LDIwOS45MzRjLTI3LjMwMiwwLTU0LjYwMSwwLTgxLjg5LDBjLTYuODQ4LDAtNi44NDgsMTAuNjMzLDAsMTAuNjMzYzI3LjI4OSwwLDU0LjU4OCwwLDgxLjg5LDAmIzEwOyYjOTsmIzk7JiM5OyYjOTtDMTQ4LjAxNSwyMjAuNTY2LDE0OC4wMTUsMjA5LjkzNCwxNDEuMTcsMjA5LjkzNHoiLz4mI3hhOwkJCTxwYXRoIGQ9Ik0yNS4zNjIsNTguMDg3VjI1Ni42MWgxNTIuODc3Vjg1LjYzbC0yOC40MDYtMjcuNTQzSDI1LjM2MnogTTE2NS4wMjYsMjQzLjM5M0gzOC41ODVWNzEuMzA1aDEwNC40NDN2MjAuOTdoMjEuOTg4JiMxMDsmIzk7JiM5OyYjOTsmIzk7djE1MS4xMThIMTY1LjAyNnoiLz4mI3hhOwkJCTxwb2x5Z29uIHBvaW50cz0iNTEuMjA0LDI3LjY2NyA1MS4yMDQsNTAuNjQ1IDY0LjQyNyw1MC42NDUgNjQuNDI3LDQwLjg4IDE2OC44NzUsNDAuODggMTY4Ljg3NSw2MS44NSAxOTAuODY4LDYxLjg1ICYjMTA7JiM5OyYjOTsmIzk7JiM5OzE5MC44NjgsMjEyLjk3MSAxODUuMDU5LDIxMi45NzEgMTg1LjA1OSwyMjYuMTg4IDIwNC4wODYsMjI2LjE4OCAyMDQuMDg2LDU1LjIwNSAxNzUuNjgsMjcuNjY3Ii8+JiN4YTsJCQk8cG9seWdvbiBwb2ludHM9IjIwMi44MzcsMCA3OC4zNjMsMCA3OC4zNjMsMjIuOTgzIDkxLjU4MSwyMi45ODMgOTEuNTgxLDEzLjIxOCAxOTYuMDMyLDEzLjIxOCAxOTYuMDMyLDM0LjE4OCAyMTguMDI1LDM0LjE4OCAmIzEwOyYjOTsmIzk7JiM5OyYjOTsyMTguMDI1LDE4NS4zMDYgMjEyLjIyMSwxODUuMzA2IDIxMi4yMjEsMTk4LjUyMyAyMzEuMjQ4LDE5OC41MjMgMjMxLjI0OCwyNy41NDMiLz4mI3hhOwkJPC9nPiYjeGE7CTwvZz4mI3hhOzwvZz4mI3hhOzwvc3ZnPg==;strokeWidth=2;fontSize=20;" vertex="1" parent="39"><mxGeometry x="170" y="50" width="20" height="20" as="geometry"/></mxCell><mxCell id="42" value="Upload&lt;br&gt;with Stdin" style="edgeStyle=orthogonalEdgeStyle;rounded=0;orthogonalLoop=1;jettySize=auto;html=1;strokeWidth=2;fontSize=20;fontColor=default;exitX=0.5;exitY=1;exitDx=0;exitDy=0;" edge="1" parent="1" source="40" target="30"><mxGeometry relative="1" as="geometry"><mxPoint x="410" y="320" as="sourcePoint"/><mxPoint x="150" y="210" as="targetPoint"/></mxGeometry></mxCell></root></mxGraphModel></diagram></mxfile>